<svg width="499" height="423" viewBox="0 0 499 423" fill="none" xmlns="http://www.w3.org/2000/svg">
<path d="M403.737 152.344C402.404 163.277 402.671 276.344 404.004 275.544C405.737 274.344 407.471 223.677 406.937 183.411C406.671 148.611 405.471 137.677 403.737 152.344Z" fill="white"/>
<path d="M402.138 279.677C400.671 280.077 398.004 282.077 396.138 284.077C391.204 289.544 387.071 291.677 375.071 295.277C352.004 302.21 286.538 327.144 253.204 341.544C245.604 344.877 243.738 345.144 240.938 343.944C237.204 342.21 234.138 343.677 232.804 348.077C232.404 349.544 229.204 351.677 225.737 352.877C222.271 354.21 219.071 355.944 218.537 356.61C217.604 357.944 218.137 364.077 219.071 364.61C219.337 364.744 221.471 366.477 223.871 368.477C229.204 372.744 235.071 373.144 241.071 369.41C243.471 368.077 246.271 365.01 247.471 362.877C249.204 359.277 249.204 358.21 247.604 353.41C245.871 348.21 245.871 347.81 248.538 346.744C359.871 303.544 384.138 294.477 385.871 295.144C386.804 295.544 386.538 295.944 385.204 295.944C381.871 296.077 382.271 298.344 386.004 300.744C396.804 307.944 410.804 301.41 410.804 289.277C410.804 285.277 407.204 278.344 405.337 278.877C405.071 279.01 403.604 279.41 402.138 279.677Z" fill="white"/>
<path d="M90.1374 302.211C100.537 310.211 170.671 339.677 200.804 348.611C207.471 350.611 213.604 352.477 214.537 352.744C215.337 353.011 216.137 352.877 216.137 352.211C216.137 351.544 207.604 347.944 197.204 344.077C186.671 340.211 165.204 331.677 149.471 325.011C85.0707 298.211 84.6707 298.077 90.1374 302.211Z" fill="white"/>
<path d="M231.331 29.7416C229.064 31.7416 222.798 36.0082 217.464 39.2082C212.264 42.4082 194.798 54.4082 178.798 65.8749C149.864 86.5416 117.198 109.742 111.731 113.475C109.598 114.942 107.998 115.075 105.331 114.008C100.798 112.408 96.531 114.275 96.531 118.008C96.531 119.342 94.531 122.008 92.131 123.875C85.9977 128.542 86.6644 134.142 93.9977 138.942C96.931 140.942 99.1977 143.475 99.1977 144.808C99.1977 148.808 90.2644 189.075 82.931 218.675C73.5977 256.542 71.331 267.208 72.6644 268.008C73.8644 268.808 73.4644 270.275 86.3977 218.542C91.8644 196.408 97.731 170.142 99.331 160.142C101.064 149.875 102.931 142.008 103.731 142.008C104.531 142.008 109.198 150.275 114.131 160.408C119.064 170.408 129.598 190.008 137.731 204.008C145.864 217.875 152.398 229.875 152.131 230.542C151.998 231.075 141.598 237.342 129.198 244.275C107.064 256.542 100.531 260.408 86.131 269.742C79.0644 274.275 78.7977 274.408 75.1977 272.275C70.931 269.742 67.1977 269.342 67.1977 271.475C67.1977 273.742 60.3977 282.008 58.3977 282.008C55.5977 282.008 52.131 288.142 53.1977 291.342C54.3977 294.942 60.531 298.008 66.931 298.008C73.5977 298.008 80.7977 293.342 82.3977 287.875L83.5977 283.742L132.398 282.942C169.731 282.275 181.598 282.542 182.798 283.742C183.598 284.675 189.598 294.008 195.998 304.675C208.531 325.608 219.064 341.208 220.131 340.275C220.398 339.875 219.731 337.608 218.398 335.075C216.264 330.808 192.664 291.075 188.798 284.942L186.931 282.008H206.398H225.864V294.942C225.864 312.008 228.264 338.275 229.864 339.875C230.798 340.808 230.931 330.942 230.264 311.475L229.464 281.742L304.531 282.142C357.998 282.542 379.731 282.275 380.131 281.208C380.398 280.408 371.731 274.808 360.931 268.675C295.598 231.875 269.198 216.808 258.664 210.408C246.798 203.342 244.531 202.275 244.531 204.542C244.531 207.742 306.931 244.808 352.531 268.675L375.864 280.808L367.864 280.142C363.464 279.742 330.664 278.942 294.931 278.542L229.864 277.608V264.008C229.864 256.542 230.264 241.342 230.798 230.275L231.598 210.275L235.998 209.475C241.331 208.408 244.798 203.475 245.864 195.608L246.531 189.742L257.198 185.475C263.064 183.075 271.064 179.475 275.064 177.475C285.864 171.875 305.731 164.408 307.198 165.342C309.331 166.675 319.464 182.008 318.131 182.008C317.598 182.008 315.864 182.942 314.398 184.008C311.864 186.008 311.864 186.142 314.531 185.742C315.998 185.608 317.998 185.875 318.798 186.408C319.998 187.208 320.264 186.808 319.598 185.075C318.131 180.675 321.064 184.808 340.531 214.008C359.331 242.275 371.064 258.275 381.598 270.008C390.398 279.875 389.198 275.208 379.598 262.542C366.531 245.608 325.864 184.142 327.331 183.608C329.198 182.942 334.798 187.742 337.198 192.008C340.131 197.475 347.864 210.542 355.198 222.275C358.531 227.608 361.064 232.275 360.931 232.675C360.798 233.075 361.864 233.475 363.198 233.608C365.198 233.742 363.998 231.342 357.731 221.608C353.464 214.808 349.331 208.008 348.531 206.275C347.864 204.675 346.664 203.342 345.864 203.342C345.064 203.342 344.664 202.808 345.064 202.275C345.464 201.608 344.264 199.608 342.398 197.608C340.531 195.608 339.464 194.008 339.864 194.008C340.264 194.008 339.064 191.342 337.198 188.008C335.331 184.675 333.864 181.475 333.864 180.808C333.864 179.608 346.531 174.008 349.064 174.008C350.664 174.008 369.998 164.408 369.464 163.875C368.931 163.342 348.798 170.675 341.864 173.875C338.531 175.342 334.398 176.675 332.664 176.675C330.798 176.675 328.398 177.608 327.198 178.675C325.064 180.542 324.531 180.275 321.198 176.008C317.731 171.342 317.731 171.075 319.998 169.208C322.398 167.342 322.398 167.208 319.731 168.542C317.198 169.742 316.398 169.475 314.531 166.542C313.331 164.675 312.531 162.942 312.798 162.808C314.531 161.608 358.664 144.808 381.598 136.542C388.798 133.875 391.198 134.142 391.198 137.342C391.198 141.608 401.731 144.008 408.398 141.208C415.731 138.142 417.864 135.608 417.864 129.742C417.864 125.875 416.931 123.742 414.531 121.475C408.531 115.875 398.264 115.608 399.731 121.075C401.064 126.275 392.798 134.142 389.064 131.208C387.064 129.608 342.798 127.342 313.198 127.342H289.198L273.998 101.875C258.398 75.4749 255.598 70.4082 248.398 54.2749C244.398 45.2082 244.264 44.4082 246.264 42.4082C248.264 40.2749 248.798 40.2749 253.464 42.5416C256.264 43.8749 270.798 52.5416 285.864 61.8749C319.064 82.5416 335.064 91.7416 361.198 105.342C372.264 111.075 383.731 117.075 386.798 118.808C389.864 120.542 392.664 121.475 393.064 120.808C393.864 119.475 386.664 115.075 355.864 97.6082C344.931 91.3416 324.264 79.3416 310.131 70.9416C295.998 62.5416 276.398 51.4749 266.664 46.5416C250.531 38.2749 248.664 36.9416 246.398 32.0082C243.064 24.9416 237.464 24.0082 231.331 29.7416ZM222.798 46.0082C225.198 48.1416 228.264 50.0082 229.464 50.0082C231.331 50.0082 231.464 51.4749 230.664 61.6082C230.264 68.1416 229.464 85.4749 228.931 100.275L228.131 127.342L174.664 127.208C145.198 127.075 119.864 126.675 118.131 126.275C116.398 125.742 113.864 123.475 112.398 121.075L109.731 116.942L121.464 109.742C132.398 103.075 171.331 75.6082 203.064 52.2749C210.664 46.6749 217.198 42.0082 217.598 42.0082C217.864 42.0082 220.264 43.7416 222.798 46.0082ZM243.731 51.6082C244.798 53.3416 246.531 57.4749 247.731 61.0749C250.931 70.5416 258.131 84.4082 271.331 106.275C277.864 116.942 283.198 126.142 283.198 126.675C283.198 127.208 272.264 127.342 258.931 126.942C245.464 126.408 233.998 126.008 233.331 126.008C232.664 126.008 232.531 110.808 233.064 88.9416C233.864 56.9416 234.264 51.7416 236.131 50.2749C239.331 47.8749 241.598 48.2749 243.731 51.6082ZM174.531 130.542L227.864 130.675L228.264 154.275C228.531 177.342 229.998 184.408 231.731 171.875C232.131 168.408 232.531 157.875 232.531 148.542V131.342H259.864C274.931 131.342 287.198 131.875 287.198 132.408C287.198 133.075 291.064 139.342 295.864 146.542C300.664 153.608 304.264 159.875 303.998 160.542C303.598 161.208 299.464 163.075 294.931 164.675C290.264 166.408 276.931 172.275 265.331 177.608L244.131 187.475L241.198 184.675L238.131 181.875L229.731 189.342C217.998 199.875 217.198 201.208 220.131 205.208C221.464 207.075 223.998 208.808 225.731 209.342C228.531 210.008 228.798 210.675 228.131 215.075C227.731 217.742 226.931 233.075 226.398 249.075L225.464 278.008L204.798 277.742L184.264 277.342L178.264 266.675C174.931 260.808 169.331 250.675 165.598 244.275C161.864 237.742 159.064 232.275 159.331 232.008C159.598 231.742 167.064 227.742 175.864 222.942C200.264 209.875 217.464 199.342 214.531 199.342C213.064 199.342 204.664 203.342 195.864 208.008C173.731 220.008 156.264 228.942 155.998 228.408C155.731 228.142 151.864 221.075 147.198 212.675C142.531 204.275 134.798 190.408 129.731 182.008C124.798 173.608 117.864 160.808 114.398 153.742L107.998 140.808L110.264 136.008L112.531 131.208L122.131 137.742C138.931 148.942 157.731 159.875 182.531 172.808C209.198 186.808 214.931 189.475 216.131 188.142C217.331 187.075 220.931 189.208 179.864 166.675C153.198 152.008 115.198 130.008 115.198 129.075C115.198 128.808 116.531 128.942 118.264 129.475C119.864 130.008 145.198 130.542 174.531 130.542ZM382.798 132.542C381.998 132.808 371.331 136.675 359.198 140.942C317.331 156.008 310.798 158.142 309.198 157.475C308.398 157.208 303.998 151.208 299.598 144.275L291.464 131.608L337.998 131.875C363.598 131.875 383.731 132.275 382.798 132.542ZM396.664 137.608C398.398 139.742 398.264 139.875 396.264 138.142C394.931 137.208 393.864 136.142 393.864 135.875C393.864 134.808 394.931 135.475 396.664 137.608ZM165.464 251.742C170.798 261.342 176.398 271.342 177.998 273.608L180.798 278.008H150.264C122.264 278.142 114.664 278.275 91.731 280.008C84.2644 280.542 80.531 279.342 80.531 276.542C80.531 276.008 89.331 270.675 100.264 264.542C111.064 258.542 127.331 249.208 136.531 243.875C145.731 238.542 153.864 234.142 154.531 234.142C155.331 234.008 160.264 242.008 165.464 251.742Z" fill="white"/>
<path d="M331.079 373.571L321.879 375.037L318.146 387.304C316.146 394.104 314.279 400.504 314.013 401.437C313.746 402.504 317.746 407.704 322.813 413.037L331.879 422.637L344.813 420.104L357.613 417.704L362.546 403.304L367.479 389.037L361.213 383.171C347.746 370.504 348.146 370.771 331.079 373.571ZM354.813 380.904L362.546 388.637L351.613 390.371L340.679 392.104L333.479 384.904C329.613 381.037 326.679 377.571 326.946 377.304C327.213 376.904 331.613 375.971 336.546 375.037C341.479 374.104 345.879 373.304 346.279 373.171C346.679 373.171 350.546 376.504 354.813 380.904ZM360.279 403.304C358.279 409.704 356.546 415.171 356.413 415.304C355.879 415.971 335.079 419.704 334.679 419.304C334.146 418.637 341.079 396.504 342.146 395.304C343.213 394.237 362.546 390.504 363.346 391.171C363.613 391.304 362.279 396.771 360.279 403.304Z" fill="#46B6FB"/>
<path d="M462.079 184.571L452.879 186.037L449.146 198.304C447.146 205.104 445.279 211.504 445.013 212.437C444.746 213.504 448.746 218.704 453.813 224.037L462.879 233.637L475.813 231.104L488.613 228.704L493.546 214.304L498.479 200.037L492.213 194.171C478.746 181.504 479.146 181.771 462.079 184.571ZM485.813 191.904L493.546 199.637L482.613 201.371L471.679 203.104L464.479 195.904C460.613 192.037 457.679 188.571 457.946 188.304C458.213 187.904 462.613 186.971 467.546 186.037C472.479 185.104 476.879 184.304 477.279 184.171C477.679 184.171 481.546 187.504 485.813 191.904ZM491.279 214.304C489.279 220.704 487.546 226.171 487.413 226.304C486.879 226.971 466.079 230.704 465.679 230.304C465.146 229.637 472.079 207.504 473.146 206.304C474.213 205.237 493.546 201.504 494.346 202.171C494.613 202.304 493.279 207.771 491.279 214.304Z" fill="#FFA3EB"/>
<path d="M126.079 1.57054L116.879 3.03721L113.146 15.3039C111.146 22.1039 109.279 28.5039 109.013 29.4372C108.746 30.5039 112.746 35.7039 117.813 41.0372L126.879 50.6372L139.813 48.1039L152.613 45.7039L157.546 31.3039L162.479 17.0372L156.213 11.1705C142.746 -1.49612 143.146 -1.22946 126.079 1.57054ZM149.813 8.90388L157.546 16.6372L146.613 18.3705L135.679 20.1039L128.479 12.9039C124.613 9.03721 121.679 5.57054 121.946 5.30388C122.213 4.90388 126.613 3.97054 131.546 3.03721C136.479 2.10388 140.879 1.30388 141.279 1.17054C141.679 1.17054 145.546 4.50388 149.813 8.90388ZM155.279 31.3039C153.279 37.7039 151.546 43.1705 151.413 43.3039C150.879 43.9705 130.079 47.7039 129.679 47.3039C129.146 46.6372 136.079 24.5039 137.146 23.3039C138.213 22.2372 157.546 18.5039 158.346 19.1705C158.613 19.3039 157.279 24.7705 155.279 31.3039Z" fill="#016A49"/>
<path d="M17.0793 184.571L7.87927 186.037L4.14593 198.304C2.14593 205.104 0.279266 211.504 0.0125994 212.437C-0.254067 213.504 3.74593 218.704 8.8126 224.037L17.8793 233.637L30.8126 231.104L43.6126 228.704L48.5459 214.304L53.4793 200.037L47.2126 194.171C33.7459 181.504 34.1459 181.771 17.0793 184.571ZM40.8126 191.904L48.5459 199.637L37.6126 201.371L26.6793 203.104L19.4793 195.904C15.6126 192.037 12.6793 188.571 12.9459 188.304C13.2126 187.904 17.6126 186.971 22.5459 186.037C27.4793 185.104 31.8793 184.304 32.2793 184.171C32.6793 184.171 36.5459 187.504 40.8126 191.904ZM46.2793 214.304C44.2793 220.704 42.5459 226.171 42.4126 226.304C41.8793 226.971 21.0793 230.704 20.6793 230.304C20.1459 229.637 27.0793 207.504 28.1459 206.304C29.2126 205.237 48.5459 201.504 49.3459 202.171C49.6126 202.304 48.2793 207.771 46.2793 214.304Z" fill="#6557FF"/>
<path d="M116.079 354.571L106.879 356.037L103.146 368.304C101.146 375.104 99.2793 381.504 99.0126 382.437C98.7459 383.504 102.746 388.704 107.813 394.037L116.879 403.637L129.813 401.104L142.613 398.704L147.546 384.304L152.479 370.037L146.213 364.171C132.746 351.504 133.146 351.771 116.079 354.571ZM139.813 361.904L147.546 369.637L136.613 371.371L125.679 373.104L118.479 365.904C114.613 362.037 111.679 358.571 111.946 358.304C112.213 357.904 116.613 356.971 121.546 356.037C126.479 355.104 130.879 354.304 131.279 354.171C131.679 354.171 135.546 357.504 139.813 361.904ZM145.279 384.304C143.279 390.704 141.546 396.171 141.413 396.304C140.879 396.971 120.079 400.704 119.679 400.304C119.146 399.637 126.079 377.504 127.146 376.304C128.213 375.237 147.546 371.504 148.346 372.171C148.613 372.304 147.279 377.771 145.279 384.304Z" fill="#00EC64"/>
<path d="M343.079 15.5705L333.879 17.0372L330.146 29.3039C328.146 36.1039 326.279 42.5039 326.013 43.4372C325.746 44.5039 329.746 49.7039 334.813 55.0372L343.879 64.6372L356.813 62.1039L369.613 59.7039L374.546 45.3039L379.479 31.0372L373.213 25.1705C359.746 12.5039 360.146 12.7705 343.079 15.5705ZM366.813 22.9039L374.546 30.6372L363.613 32.3705L352.679 34.1039L345.479 26.9039C341.613 23.0372 338.679 19.5705 338.946 19.3039C339.213 18.9039 343.613 17.9705 348.546 17.0372C353.479 16.1039 357.879 15.3039 358.279 15.1705C358.679 15.1705 362.546 18.5039 366.813 22.9039ZM372.279 45.3039C370.279 51.7039 368.546 57.1705 368.413 57.3039C367.879 57.9705 347.079 61.7039 346.679 61.3039C346.146 60.6372 353.079 38.5039 354.146 37.3039C355.213 36.2372 374.546 32.5039 375.346 33.1705C375.613 33.3039 374.279 38.7705 372.279 45.3039Z" fill="#F3097C"/>
</svg>
